<svg width="60" height="60" viewBox="0 0 60 60" xmlns="http://www.w3.org/2000/svg">
    <defs>
        <linearGradient x1="50%" y1="0%" x2="50%" y2="68.896%" id="y85zk7jvoa">
            <stop stop-color="#3C88F9" offset="0%"/>
            <stop stop-color="#0058DB" offset="100%"/>
        </linearGradient>
        <linearGradient x1="50%" y1="0%" x2="50%" y2="68.896%" id="c2xmo37qvb">
            <stop stop-color="#3C88F9" offset="0%"/>
            <stop stop-color="#0058DB" offset="100%"/>
        </linearGradient>
        <linearGradient x1="-21.656%" y1="-50.903%" x2="50%" y2="68.89%" id="5ema6idarc">
            <stop stop-color="#3C88F9" offset="0%"/>
            <stop stop-color="#0058DB" offset="100%"/>
        </linearGradient>
        <linearGradient x1="50%" y1="0%" x2="50%" y2="68.896%" id="ozxhel5tcd">
            <stop stop-color="#3C88F9" offset="0%"/>
            <stop stop-color="#0058DB" offset="100%"/>
        </linearGradient>
    </defs>
    <g fill="none" fill-rule="evenodd">
        <rect fill="#F2F4F7" fill-rule="nonzero" width="60" height="60" rx="14"/>
        <path d="M12.542 0a4.377 4.377 0 0 0-3.096 1.282L1.282 9.447a4.377 4.377 0 1 0 6.19 6.19l8.165-8.164A4.377 4.377 0 0 0 12.542 0zm0 1a3.377 3.377 0 0 1 2.388 5.765L6.766 14.93a3.377 3.377 0 0 1-4.777-4.776l8.164-8.165A3.377 3.377 0 0 1 12.542 1z" fill="url(#y85zk7jvoa)" fill-rule="nonzero" transform="translate(21.5 22.5)"/>
        <g transform="translate(21.542 22.543)">
            <path d="M1.28 1.28a4.37 4.37 0 0 0-.011 6.168l5.295 5.295 6.18-6.178-5.296-5.296a4.37 4.37 0 0 0-6.168.01zm5.462.697 4.587 4.587-4.765 4.765-4.587-4.587a3.369 3.369 0 0 1 4.617-4.904l.148.139z" fill="url(#c2xmo37qvb)" fill-rule="nonzero"/>
            <path d="m6.742 1.977 4.587 4.587-4.765 4.765-4.587-4.587a3.369 3.369 0 0 1 4.617-4.904l.148.139z" fill="#F2F4F7" fill-rule="nonzero"/>
            <path d="m11.35 5.15 4.522 4.523a4.383 4.383 0 0 1-6.199 6.199L5.15 11.348l6.2-6.198z" fill="url(#5ema6idarc)"/>
            <path d="M13.004 9.07a.362.362 0 0 1 .512 0l.255.247.253.237c1.164 1.08 1.573 1.65 1.492 2.551a.362.362 0 1 1-.721-.064c.043-.482-.167-.871-.798-1.51l-.296-.289-.526-.492-.171-.168a.362.362 0 0 1 0-.511z" fill="#FFF" fill-rule="nonzero"/>
            <circle fill="#FFF" fill-rule="nonzero" cx="14.707" cy="13.414" r="1"/>
        </g>
        <path d="M22.038 13c1.814 0 3.592.484 5.153 1.4l.309.188.355.226a4 4 0 0 0 4.09.118l.2-.118.355-.226a10.186 10.186 0 0 1 5.1-1.582l.362-.006H47a4 4 0 0 1 3.995 3.8L51 17v24.824a4 4 0 0 1-3.8 3.995l-.2.005h-7.606c-2.08 0-4.131.475-5.997 1.386l-.397.202-1.128.597a4 4 0 0 1-3.521.11l-.223-.11L27 47.412a13.667 13.667 0 0 0-5.95-1.581l-.444-.007H13a4 4 0 0 1-3.995-3.8l-.005-.2V17a4 4 0 0 1 3.8-3.995L13 13h9.038zm0 3H13a1 1 0 0 0-.993.883L12 17v24.824a1 1 0 0 0 .883.993l.117.007h7.606c2.558 0 5.08.589 7.37 1.718l.428.218 1.128.598a1 1 0 0 0 .824.05l.112-.05 1.128-.598a16.667 16.667 0 0 1 7.32-1.93l.478-.006H47a1 1 0 0 0 .993-.884l.007-.116V17a1 1 0 0 0-.883-.993L47 16h-9.038c-1.26 0-2.496.331-3.584.958l-.27.162-.354.226a7 7 0 0 1-7.268.145l-.24-.145-.355-.226a7.186 7.186 0 0 0-3.538-1.113L22.038 16z" fill="url(#ozxhel5tcd)" fill-rule="nonzero"/>
    </g>
</svg>
