<svg width="60" height="60" viewBox="0 0 60 60" xmlns="http://www.w3.org/2000/svg">
    <defs>
        <linearGradient x1="11.922%" y1="9.733%" x2="87.26%" y2="90.534%" id="d7eywrrmua">
            <stop stop-color="#055CDE" offset="0%"/>
            <stop stop-color="#3E8AFA" offset="100%"/>
        </linearGradient>
    </defs>
    <g fill-rule="nonzero" fill="none">
        <rect fill="#F2F4F7" width="60" height="60" rx="14"/>
        <path d="M48 31a4 4 0 0 1 3.995 3.8L52 35v13a4 4 0 0 1-3.8 3.995L48 52H35a4 4 0 0 1-3.995-3.8L31 48V35a4 4 0 0 1 3.8-3.995L35 31h13zm0 3h-5v4h-3v-4h-5a1 1 0 0 0-.993.883L34 35v13a1 1 0 0 0 .883.993L35 49h13a1 1 0 0 0 .993-.883L49 48V35a1 1 0 0 0-.883-.993L48 34zM25 31a4 4 0 0 1 3.995 3.8L29 35v13a4 4 0 0 1-3.8 3.995L25 52H12a4 4 0 0 1-3.995-3.8L8 48V35a4 4 0 0 1 3.8-3.995L12 31h13zm0 3h-5v4h-3v-4h-5a1 1 0 0 0-.993.883L11 35v13a1 1 0 0 0 .883.993L12 49h13a1 1 0 0 0 .993-.883L26 48V35a1 1 0 0 0-.883-.993L25 34zM37 8a4 4 0 0 1 3.995 3.8L41 12v13a4 4 0 0 1-3.8 3.995L37 29H24a4 4 0 0 1-3.995-3.8L20 25V12a4 4 0 0 1 3.8-3.995L24 8h13zm0 3h-5v4h-3v-4h-5a1 1 0 0 0-.993.883L23 12v13a1 1 0 0 0 .883.993L24 26h13a1 1 0 0 0 .993-.883L38 25V12a1 1 0 0 0-.883-.993L37 11z" fill="url(#d7eywrrmua)"/>
    </g>
</svg>
