<svg width="60" height="56" xmlns="http://www.w3.org/2000/svg">
    <defs>
        <linearGradient x1="50%" y1="26.545%" x2="50%" y2="53.465%" id="a">
            <stop stop-color="#0058DB" offset="0%"/>
            <stop stop-color="#0048B3" offset="100%"/>
        </linearGradient>
        <linearGradient x1="50%" y1="21.213%" x2="50%" y2="40.206%" id="b">
            <stop stop-color="#0044C5" offset="0%"/>
            <stop stop-color="#0058DB" offset="100%"/>
        </linearGradient>
    </defs>
    <g fill-rule="nonzero" fill="none">
        <rect fill="#0058DB" x="46.957" y="7.025" width="7.543" height="5.967" rx="2.286"/>
        <rect fill="#0058DB" x="5.471" y="7.025" width="7.543" height="5.967" rx="2.286"/>
        <path d="M38.418 0c2.525 0 4.571 2.055 4.571 4.59v14.022a.458.458 0 0 1-.457.459H17.454a.458.458 0 0 1-.458-.46V4.592C16.996 2.054 19.043 0 21.568 0h16.85zm0 4.571h-16.85v.02l-.001 9.908h16.85V4.571z" fill="url(#a)"/>
        <rect fill="url(#b)" y="10.098" width="60" height="45.902" rx="5.714"/>
        <path d="M5.714 10.152h48.572c3.156 0 5.714 2.569 5.714 5.738v4.59H0v-4.59c0-3.169 2.558-5.738 5.714-5.738z" fill="#2376F1"/>
    </g>
</svg>
