<svg width="128" height="128" xmlns="http://www.w3.org/2000/svg">
    <defs>
        <linearGradient x1="50%" y1="26.545%" x2="50%" y2="53.465%" id="a">
            <stop stop-color="#0058DB" offset="0%"/>
            <stop stop-color="#0048B3" offset="100%"/>
        </linearGradient>
        <linearGradient x1="50%" y1="21.213%" x2="50%" y2="40.206%" id="b">
            <stop stop-color="#0044C5" offset="0%"/>
            <stop stop-color="#0058DB" offset="100%"/>
        </linearGradient>
        <filter x="-56.7%" y="-56.5%" width="213.4%" height="213%" filterUnits="objectBoundingBox" id="c">
            <feOffset dy="2" in="SourceAlpha" result="shadowOffsetOuter1"/>
            <feGaussianBlur stdDeviation="2" in="shadowOffsetOuter1" result="shadowBlurOuter1"/>
            <feColorMatrix values="0 0 0 0 0 0 0 0 0 0 0 0 0 0 0 0 0 0 0.2 0" in="shadowBlurOuter1" result="shadowMatrixOuter1"/>
            <feMerge>
                <feMergeNode in="shadowMatrixOuter1"/>
                <feMergeNode in="SourceGraphic"/>
            </feMerge>
        </filter>
    </defs>
    <g fill="none" fill-rule="evenodd">
        <path d="M0 0h128v128H0z"/>
        <g transform="translate(34 36)">
            <rect fill="#0058DB" fill-rule="nonzero" x="46.316" y="6.34" width="7.368" height="6.34" rx="1.524"/>
            <rect fill="#0058DB" fill-rule="nonzero" x="5.263" y="6.34" width="7.368" height="6.34" rx="1.524"/>
            <path d="M37.477 0c2.556 0 4.628 2.05 4.628 4.578V18.56a.46.46 0 0 1-.463.458h-25.39a.46.46 0 0 1-.463-.458V4.578C15.79 2.049 17.862 0 20.418 0h17.059zm0 3.048h-17.06c-.83 0-1.502.617-1.574 1.392l-.006.138V15.97h20.22V4.578c0-.791-.624-1.453-1.435-1.524l-.145-.006z" fill="url(#a)" fill-rule="nonzero"/>
            <rect fill="url(#b)" fill-rule="nonzero" y="10.566" width="60" height="45.434" rx="3.81"/>
            <path d="M5.714 9.51h48.572c3.156 0 5.714 2.628 5.714 5.87v4.695H0V15.38c0-3.241 2.558-5.87 5.714-5.87z" fill="#2376F1" fill-rule="nonzero"/>
            <path d="M38.498 28.98a5.16 5.16 0 0 1 0 7.278L27.701 47.096a5.114 5.114 0 0 1-7.252 0 5.16 5.16 0 0 1 0-7.278l10.797-10.839a5.118 5.118 0 0 1 7.252 0z" fill="#EDF2FA"/>
            <g filter="url(#c)" transform="translate(18.947 27.472)">
                <path d="M8.043 15.359 1.49 8.782a5.166 5.166 0 0 1 .013-7.273 5.119 5.119 0 0 1 7.245-.013l6.555 6.578-7.26 7.285z" fill="#FFF"/>
                <path d="m14.36 7.114 5.306 5.326a5.176 5.176 0 0 1-.006 7.294 5.13 5.13 0 0 1-7.267.007l-5.308-5.328 7.275-7.3z" fill="#A1BDE9"/>
                <path d="M16.655 11.482a.381.381 0 0 1 .539 0l.368.357.31.29c1.52 1.416 2.05 2.159 1.946 3.314a.381.381 0 1 1-.759-.068c.066-.742-.282-1.313-1.33-2.332l-.896-.847-.179-.175a.381.381 0 0 1 .001-.54z" fill="#FFF" fill-rule="nonzero"/>
                <circle fill="#FFF" fill-rule="nonzero" cx="18.844" cy="17.194" r="1"/>
            </g>
        </g>
    </g>
</svg>
