<?xml version="1.0" encoding="UTF-8"?>
<svg width="128px" height="128px" viewBox="0 0 128 128" version="1.1" xmlns="http://www.w3.org/2000/svg" xmlns:xlink="http://www.w3.org/1999/xlink">
    <title>BPO_AOS_Splash</title>
    <defs>
        <rect id="path-1" x="0" y="0" width="128" height="128"></rect>
        <polygon id="path-3" points="0 0 92.8 0 92.8 44.8 0 44.8"></polygon>
    </defs>
    <g id="Page-1" stroke="none" stroke-width="1" fill="none" fill-rule="evenodd">
        <g id="BPO_AOS_Splash" transform="translate(-116.000000, -156.000000)">
            <g transform="translate(116.000000, 156.000000)">
                <g id="Oval">
                    <mask id="mask-2" fill="white">
                        <use xlink:href="#path-1"></use>
                    </mask>
                    <use id="Mask" fill="#FFFFFF" xlink:href="#path-1"></use>
                </g>
                <g id="Group-8-Copy" transform="translate(17.920000, 39.680000)">
                    <path d="M25.2097966,29.44 L22.4,29.44 L22.4,34.56 L26.2588317,34.56 C28.4316746,34.56 30.08,34.0976887 30.08,32.0192397 C30.08,29.5939179 28.0195932,29.44 25.2097966,29.44" id="Fill-1" fill="#1A78FE"></path>
                    <path d="M28.8,21.968338 C28.8,19.8778515 27.1554638,19.84 25.3676716,19.84 L22.4,19.84 L22.4,24.32 L25.9036921,24.32 C27.5841744,24.32 28.8,23.5359324 28.8,21.968338" id="Fill-3" fill="#1A78FE"></path>
                    <g id="Group-7">
                        <mask id="mask-4" fill="white">
                            <use xlink:href="#path-3"></use>
                        </mask>
                        <g id="Clip-6"></g>
                        <path d="M78.5893852,34.675362 C74.3410399,34.675362 73.2889576,30.2740686 73.2889576,26.7536991 C73.2889576,23.2710281 74.4922108,19.1380589 78.5143555,19.1380589 C82.4242337,19.0233004 83.9276055,23.0027039 83.9276055,26.7536991 C83.9276055,31.3080039 82.4242337,34.675362 78.5893852,34.675362 M53.6300789,25.681511 L49.9458455,25.681511 L49.9458455,19.5582857 L52.4646184,19.5582857 C54.34425,19.5582857 57.2014901,19.9031156 57.2014901,22.4671642 C57.2014901,24.8399487 55.6975625,25.681511 53.6300789,25.681511 M78.5893852,12.4022339 C72.3402494,12.4022339 67.5639177,15.5023766 65.514219,20.6349089 C64.7733707,16.0113056 61.0418963,13.1295921 54.1186053,13.1295921 L43.6189011,13.1295921 L47.1202846,0 L11.9469426,0 L0,44.8001663 L35.173342,44.8001663 L37.3553152,36.6184951 C35.6218525,39.5573106 31.8125696,40.6838288 26.7377867,40.6838288 L13.5425731,40.6838288 L13.5425731,13.1295921 L26.4743493,13.1295921 C32.5650892,13.1295921 37.4147831,14.5837542 37.4147831,20.0561269 C37.4147831,22.8879454 35.6101812,24.9547072 33.8811647,26.0645937 C36.8134344,26.8302048 38.3923916,29.3942534 38.3923916,32.3790832 C38.3923916,32.5276594 38.3768299,32.6623759 38.3718279,32.806517 L41.073451,22.67506 L41.073451,40.6838288 L49.9458455,40.6838288 L49.9458455,32.1113134 L54.4192796,32.1113134 C59.5779846,32.1113134 62.8264904,30.4559081 64.4376825,27.6168826 C64.8061614,36.4094904 70.381142,41.4106326 78.5893852,41.4106326 C86.5969935,41.4106326 92.8,36.1295241 92.8,26.7536991 C92.8,19.4823344 88.2515362,12.4022339 78.5893852,12.4022339" id="Fill-5" fill="#1A78FE" mask="url(#mask-4)"></path>
                    </g>
                </g>
            </g>
        </g>
    </g>
</svg>