<svg width="60" height="60" viewBox="0 0 60 60" xmlns="http://www.w3.org/2000/svg">
    <defs>
        <linearGradient x1="22.44%" y1="8.644%" x2="89.507%" y2="88.708%" id="jeir6sz86a">
            <stop stop-color="#055CDE" offset="0%"/>
            <stop stop-color="#3E8AFA" offset="100%"/>
        </linearGradient>
        <linearGradient x1="22.44%" y1="8.644%" x2="89.502%" y2="81.918%" id="l2siux1kbb">
            <stop stop-color="#055CDE" offset="0%"/>
            <stop stop-color="#3E8AFA" offset="100%"/>
        </linearGradient>
        <linearGradient x1="-42.236%" y1="-50.39%" x2="152.461%" y2="142.987%" id="fsf9ysrovc">
            <stop stop-color="#055CDE" offset="0%"/>
            <stop stop-color="#3E8AFA" offset="100%"/>
        </linearGradient>
    </defs>
    <g fill="none" fill-rule="evenodd">
        <rect fill="#F2F4F7" fill-rule="nonzero" width="60" height="60" rx="14"/>
        <path d="M37 12a4 4 0 0 1 3.995 3.8L41 16v20a4 4 0 0 1-3.8 3.995L37 40H17a4 4 0 0 1-3.995-3.8L13 36V16a4 4 0 0 1 3.8-3.995L17 12h20zm0 3h-8v6.333h-4V15h-8a1 1 0 0 0-.993.883L16 16v20a1 1 0 0 0 .883.993L17 37h20a1 1 0 0 0 .993-.883L38 36V16a1 1 0 0 0-.883-.993L37 15z" fill="url(#jeir6sz86a)" fill-rule="nonzero"/>
        <path d="m38.73 24-.202.005a4.02 4.02 0 0 0-3.664 2.94l-.056.231-.133-.085a4.01 4.01 0 0 0-4.884.612l-1.088 1.088-.149.157a4.02 4.02 0 0 0-.422 4.794l.043.067-.038.007A4.018 4.018 0 0 0 25 37.73v1.54l.005.202a4.02 4.02 0 0 0 3.132 3.711l.038.007-.043.068a4.019 4.019 0 0 0 .57 4.95l1.089 1.09a3.997 3.997 0 0 0 2.836 1.174l.24-.008a4.01 4.01 0 0 0 1.809-.555l.132-.086.009.04A4.018 4.018 0 0 0 38.73 53h1.538l.203-.005a4.011 4.011 0 0 0 3.711-3.131l.008-.04.134.085a4.01 4.01 0 0 0 4.884-.612l1.088-1.088.15-.157a4.02 4.02 0 0 0 .421-4.795l-.044-.067.039-.007A4.018 4.018 0 0 0 54 39.27V37.73l-.005-.202a4.019 4.019 0 0 0-3.133-3.712l-.038-.007.044-.067a4.018 4.018 0 0 0-.571-4.951l-1.088-1.088a3.997 3.997 0 0 0-2.836-1.175l-.24.008a4.01 4.01 0 0 0-1.808.555l-.134.084-.008-.039A4.01 4.01 0 0 0 40.27 24h-1.538z" fill="#F2F4F7" fill-rule="nonzero"/>
        <path d="M25.131 15.27c0 .07-.061.135-.131.14l-1.928.134a2.132 2.132 0 0 0-1.852 1.396 7.163 7.163 0 0 1-.242.582 2.132 2.132 0 0 0 .321 2.3l1.27 1.459a.147.147 0 0 1-.008.192l-1.088 1.088a.128.128 0 0 1-.1.042.142.142 0 0 1-.092-.035L19.823 21.3a2.127 2.127 0 0 0-2.301-.32 7.19 7.19 0 0 1-.582.241 2.132 2.132 0 0 0-1.396 1.852L15.41 25a.141.141 0 0 1-.14.131h-1.54a.147.147 0 0 1-.14-.131l-.134-1.928a2.132 2.132 0 0 0-1.396-1.852 7.178 7.178 0 0 1-.582-.241 2.127 2.127 0 0 0-2.3.32l-1.459 1.27a.14.14 0 0 1-.092.034.13.13 0 0 1-.1-.041l-1.088-1.089a.147.147 0 0 1-.007-.192L7.7 19.822a2.131 2.131 0 0 0 .32-2.3 7.152 7.152 0 0 1-.24-.582 2.132 2.132 0 0 0-1.853-1.396L4 15.41a.147.147 0 0 1-.131-.14v-1.54c0-.07.061-.135.131-.14l1.928-.134A2.132 2.132 0 0 0 7.78 12.06c.072-.197.153-.393.242-.582a2.13 2.13 0 0 0-.322-2.3L6.432 7.718a.147.147 0 0 1 .007-.192l1.088-1.088a.128.128 0 0 1 .1-.042c.034 0 .066.012.092.035l1.458 1.269a2.127 2.127 0 0 0 2.3.321c.19-.09.386-.17.583-.242a2.131 2.131 0 0 0 1.396-1.853L13.59 4a.147.147 0 0 1 .14-.131h1.54c.073 0 .135.058.14.131l.134 1.928a2.132 2.132 0 0 0 1.397 1.852c.196.072.392.153.581.242a2.127 2.127 0 0 0 2.3-.321l1.459-1.27a.141.141 0 0 1 .092-.034.13.13 0 0 1 .1.042l1.088 1.088c.05.05.053.14.007.192L21.3 9.177a2.13 2.13 0 0 0-.32 2.3c.088.19.17.386.241.583a2.132 2.132 0 0 0 1.852 1.396L25 13.59c.07.005.131.07.131.14v1.54zM13.731 1l-.174.005a3.017 3.017 0 0 0-2.83 2.796l-.095 1.363-1.03-.897a3.01 3.01 0 0 0-4.104.143L4.41 5.498l-.134.143a3.017 3.017 0 0 0-.009 3.961l.897 1.03-1.362.096A3.016 3.016 0 0 0 1 13.73v1.54l.005.174a3.017 3.017 0 0 0 2.796 2.828l1.363.095-.897 1.03a3.016 3.016 0 0 0 .143 4.105l1.088 1.088a2.997 2.997 0 0 0 2.129.882l.217-.008a3.01 3.01 0 0 0 1.758-.732l1.03-.897.096 1.364A3.016 3.016 0 0 0 13.73 28h1.538l.175-.005a3.01 3.01 0 0 0 2.828-2.796l.095-1.364 1.03.897a3.01 3.01 0 0 0 4.105-.142l1.088-1.088.134-.143c.984-1.122 1-2.822.008-3.961l-.897-1.032 1.364-.094A3.016 3.016 0 0 0 28 15.27V13.73l-.005-.174a3.016 3.016 0 0 0-2.797-2.828l-1.363-.096.897-1.03a3.016 3.016 0 0 0-.142-4.104L23.502 4.41a2.997 2.997 0 0 0-2.129-.882l-.217.008a3.01 3.01 0 0 0-1.758.732l-1.031.896-.095-1.363A3.01 3.01 0 0 0 15.27 1h-1.538z" fill="url(#l2siux1kbb)" fill-rule="nonzero" transform="translate(25 24)"/>
        <path d="M14.5 12.341a2.16 2.16 0 0 0-2.158 2.159 2.16 2.16 0 0 0 2.158 2.158 2.16 2.16 0 0 0 2.158-2.158A2.16 2.16 0 0 0 14.5 12.34m0 6.186a4.032 4.032 0 0 1-4.027-4.027 4.032 4.032 0 0 1 4.027-4.027 4.032 4.032 0 0 1 4.027 4.027 4.032 4.032 0 0 1-4.027 4.027" fill="url(#fsf9ysrovc)" transform="translate(25 24)"/>
    </g>
</svg>
